<svg width="45" height="30" viewBox="0 0 45 30" fill="none" xmlns="http://www.w3.org/2000/svg">
<g clip-path="url(#clip0_101_195)">
<path d="M0 4.12722C0 2.61834 0.857988 1.80473 2.57396 1.68639L9.18639 1.73077C9.63018 1.73077 9.92604 1.95266 10.074 2.39645C10.7544 4.61538 11.5163 6.53107 12.3595 8.14349C13.2027 9.75592 14.3047 11.6124 15.6657 13.713C15.784 13.9793 15.9763 14.1124 16.2426 14.1124C16.4497 14.1124 16.6124 14.0089 16.7308 13.8018L16.8639 13.3136L16.9083 5.63609C16.9083 5.10355 16.7825 4.74852 16.5311 4.57101C16.2796 4.39349 15.8136 4.26035 15.1331 4.1716C14.6006 4.08284 14.3343 3.7574 14.3343 3.19527C14.3343 3.07692 14.3491 2.98817 14.3787 2.92899C15 1.00592 16.7751 0.0443787 19.7041 0.0443787L22.1893 0C23.3136 0 24.2456 0.281065 24.9852 0.843195C25.7249 1.40533 26.0947 2.2929 26.0947 3.50592V13.5799C26.3018 13.7278 26.4941 13.8018 26.6716 13.8018C27.1154 13.8018 27.5 13.5355 27.8254 13.003C31.0799 8.44675 32.8402 5.39941 33.1065 3.86095C33.1065 3.83136 33.1361 3.7574 33.1953 3.63905C33.4024 3.19527 33.7426 2.81065 34.216 2.48521C34.6893 2.15976 35.1036 1.93787 35.4586 1.81953C35.5769 1.76036 35.7101 1.73077 35.858 1.73077H42.7367L43.1805 1.77515C43.7722 1.77515 44.2308 2.05621 44.5562 2.61834C44.6746 2.79586 44.7559 2.98817 44.8003 3.19527C44.8447 3.40237 44.8743 3.60947 44.8891 3.81657C44.9038 4.02367 44.9112 4.14201 44.9112 4.1716V4.48225C44.7041 5.69527 44.179 6.98964 43.3358 8.36538C42.4926 9.74112 41.4201 11.2278 40.1183 12.8254C38.8166 14.4231 38.003 15.4734 37.6775 15.9763C37.4112 16.3314 37.2781 16.6568 37.2781 16.9527C37.2781 17.1893 37.3964 17.4556 37.6331 17.7515L44.1124 25.9172C44.4675 26.3905 44.645 26.9083 44.645 27.4704C44.645 28.1509 44.3787 28.713 43.8462 29.1568C43.3136 29.6006 42.6775 29.8521 41.9379 29.9112L41.1834 29.9556H34.4379C34.4083 29.9556 34.3491 29.963 34.2604 29.9778C34.1716 29.9926 34.1124 30 34.0828 30C33.432 30 32.8254 29.7189 32.2633 29.1568C32.0562 28.9201 30.6657 27.1746 28.0917 23.9201C27.9438 23.713 27.7367 23.5207 27.4704 23.3432C27.3521 23.8166 27.1967 24.497 27.0044 25.3846C26.8121 26.2722 26.6716 26.9083 26.5828 27.2929L26.4497 28.0473C26.1538 29.0828 25.5325 29.7041 24.5858 29.9112L23.9645 29.9556H19.6154C17.1598 29.9556 14.7115 28.8314 12.2707 26.5828C9.82988 24.3343 7.63314 21.4275 5.68047 17.8624C3.72781 14.2973 1.90828 10.1479 0.221893 5.4142C0.0739645 5.02959 0 4.60059 0 4.12722ZM26.6716 15.6213C26.0503 15.6213 25.4882 15.4512 24.9852 15.1109C24.4822 14.7707 24.2308 14.3047 24.2308 13.713V3.50592C24.2308 2.9142 24.0828 2.4926 23.787 2.24112C23.4911 1.98964 22.9734 1.86391 22.2337 1.86391L19.7041 1.95266C18.432 1.95266 17.4704 2.17456 16.8195 2.61834C18.1213 3.23964 18.7722 4.24556 18.7722 5.63609V13.4467C18.713 14.1864 18.4172 14.8003 17.8846 15.2885C17.3521 15.7766 16.7604 16.0207 16.1095 16.0207C15.2219 16.0207 14.5414 15.5917 14.068 14.7337C11.7604 11.2426 10.0444 7.92899 8.92012 4.7929L8.52071 3.63905L2.61834 3.59467C2.23373 3.59467 2.01923 3.61686 1.97485 3.66124C1.93047 3.70562 1.90828 3.83136 1.90828 4.03846C1.90828 4.30473 1.93787 4.5858 1.99704 4.88166L2.92899 7.36686C5.4142 13.787 8.11391 18.8462 11.0281 22.5444C13.9423 26.2426 16.8047 28.0917 19.6154 28.0917H24.0533C24.2308 28.0917 24.3639 28.0399 24.4527 27.9364C24.5414 27.8328 24.6154 27.6331 24.6746 27.3373L24.7633 26.8935L25.6065 22.9882C25.8432 22.4556 26.0503 22.1006 26.2278 21.9231C26.5533 21.5976 26.9379 21.4349 27.3817 21.4349C28.0917 21.4349 28.8166 21.8639 29.5562 22.7219L33.3284 27.5148C33.5651 27.8994 33.8166 28.0917 34.0828 28.0917H41.4053C42.2929 28.0917 42.7367 27.8698 42.7367 27.426C42.7367 27.2781 42.6923 27.1302 42.6035 26.9822L36.1686 18.9497C35.6657 18.3284 35.4142 17.6627 35.4142 16.9527C35.4142 16.2426 35.6509 15.5621 36.1243 14.9112C36.5089 14.3195 37.2559 13.3358 38.3654 11.9601C39.4749 10.5843 40.4438 9.29734 41.2722 8.09911C42.1006 6.90089 42.6479 5.81361 42.9142 4.83728L43.0473 4.26035C43.0178 4.20118 43.003 4.10503 43.003 3.97189C43.003 3.83876 42.9882 3.72781 42.9586 3.63905H35.9911C35.5473 3.81657 35.1923 4.08284 34.926 4.43787L34.6598 5.28107C33.9201 7.32249 31.9822 10.4734 28.8462 14.7337C28.2249 15.3254 27.5 15.6213 26.6716 15.6213Z" fill="#25B49D"/>
</g>
<defs>
<clipPath id="clip0_101_195">
<rect width="45" height="30" fill="white"/>
</clipPath>
</defs>
</svg>
