<svg width="34" height="31" viewBox="0 0 34 31" fill="none" xmlns="http://www.w3.org/2000/svg">
<g clip-path="url(#clip0_101_200)">
<path d="M32.6853 1.38571C32.3842 1.12561 32.0176 0.952874 31.6253 0.886218C31.233 0.819562 30.83 0.861528 30.4598 1.00757L1.64541 12.3276C1.20591 12.5002 0.834145 12.8106 0.585731 13.2121C0.337317 13.6137 0.225616 14.0849 0.267343 14.5552C0.30907 15.0255 0.501982 15.4697 0.81721 15.8213C1.13244 16.1728 1.55303 16.4128 2.01605 16.5054L9.58605 18.0192V27.417C9.5856 27.8495 9.71354 28.2724 9.95365 28.6322C10.1938 28.9919 10.5352 29.2723 10.9348 29.4378C11.3344 29.6033 11.7742 29.6465 12.1983 29.5619C12.6225 29.4773 13.012 29.2687 13.3175 28.9625L17.5749 24.7049L23.9426 30.3086C24.3386 30.6603 24.8497 30.8548 25.3793 30.8554C25.6095 30.8551 25.8383 30.8188 26.0574 30.7478C26.4186 30.6332 26.7435 30.4259 26.9997 30.1466C27.2558 29.8672 27.4342 29.5256 27.5171 29.1558L33.3896 3.53012C33.479 3.14243 33.4607 2.73766 33.3366 2.35964C33.2125 1.98162 32.9873 1.64477 32.6854 1.38555L32.6853 1.38571ZM2.13362 14.3896C2.1235 14.3219 2.13771 14.2528 2.17373 14.1945C2.20974 14.1363 2.26523 14.0927 2.33034 14.0715L26.441 4.59944L10.3056 16.2526L2.38342 14.6681C2.31556 14.6587 2.25321 14.6256 2.20747 14.5746C2.16173 14.5236 2.13556 14.4581 2.13362 14.3896V14.3896ZM11.9926 27.6379C11.9489 27.6816 11.8933 27.7113 11.8327 27.7234C11.7722 27.7354 11.7094 27.7292 11.6524 27.7056C11.5953 27.682 11.5465 27.6419 11.5122 27.5906C11.4779 27.5393 11.4596 27.4789 11.4596 27.4172V19.3235L16.1657 23.465L11.9926 27.6379ZM25.6909 28.7374C25.6789 28.7901 25.6533 28.8388 25.6168 28.8787C25.5802 28.9186 25.5339 28.9484 25.4824 28.965C25.431 28.9816 25.376 28.9846 25.323 28.9736C25.2701 28.9626 25.2208 28.938 25.1802 28.9023L12.0227 17.3237L31.5362 3.23067L25.6909 28.7374Z" fill="#25B49D"/>
</g>
<defs>
<clipPath id="clip0_101_200">
<rect width="34" height="31" fill="white"/>
</clipPath>
</defs>
</svg>
