<svg width="30" height="30" viewBox="0 0 30 30" fill="none" xmlns="http://www.w3.org/2000/svg">
<g clip-path="url(#clip0_101_198)">
<path d="M14.9994 0C12.384 0.000703678 9.81427 0.685083 7.54498 1.98527C5.27569 3.28545 3.38571 5.15627 2.06246 7.41219C0.739211 9.66811 0.0286722 12.2307 0.00130961 14.846C-0.026053 17.4612 0.630711 20.0381 1.90647 22.3213L0.616115 26.8371C0.515195 27.1902 0.51053 27.5638 0.602602 27.9192C0.694674 28.2746 0.880134 28.599 1.13976 28.8586C1.39938 29.1183 1.72372 29.3037 2.07916 29.3958C2.4346 29.4879 2.8082 29.4833 3.16123 29.3824L7.67725 28.092C9.67778 29.2107 11.9081 29.8561 14.1969 29.9786C16.4857 30.101 18.7721 29.6973 20.8806 28.7985C22.9891 27.8997 24.8636 26.5296 26.3601 24.7934C27.8566 23.0573 28.9353 21.0013 29.5134 18.7833C30.0915 16.5653 30.1536 14.2444 29.695 11.9986C29.2364 9.75291 28.2692 7.64215 26.8677 5.82844C25.4663 4.01473 23.6678 2.54632 21.6104 1.53596C19.553 0.525595 17.2915 0.000160536 14.9994 0ZM14.9994 28.2334C12.6226 28.235 10.2893 27.5956 8.24544 26.3824C8.14207 26.321 8.02724 26.2814 7.90799 26.2659C7.78874 26.2504 7.66759 26.2595 7.55196 26.2925L2.67641 27.6854C2.62601 27.6999 2.57266 27.7005 2.5219 27.6874C2.47114 27.6743 2.42482 27.6478 2.38774 27.6107C2.35066 27.5737 2.32417 27.5274 2.31101 27.4766C2.29785 27.4259 2.29851 27.3725 2.31291 27.3221L3.70576 22.4464C3.73878 22.3308 3.74784 22.2097 3.73236 22.0905C3.71688 21.9713 3.67721 21.8565 3.61576 21.7532C2.12511 19.2418 1.50691 16.3079 1.85747 13.4086C2.20802 10.5092 3.50765 7.80722 5.55389 5.72347C7.60013 3.63972 10.2781 2.29123 13.1706 1.88807C16.0631 1.48491 19.0077 2.04972 21.5458 3.49451C24.0838 4.9393 26.0728 7.18294 27.2028 9.87593C28.3328 12.5689 28.5405 15.56 27.7934 18.3833C27.0463 21.2066 25.3864 23.7035 23.0723 25.4851C20.7582 27.2668 17.9199 28.233 14.9994 28.2334ZM22.573 17.4704L19.5644 15.751C19.2468 15.5699 18.8867 15.4765 18.5211 15.4805C18.1555 15.4844 17.7976 15.5855 17.4839 15.7733L15.5951 16.9066C14.5344 16.3341 13.6643 15.464 13.0919 14.4033L14.2252 12.5144C14.4131 12.2008 14.5142 11.8428 14.518 11.4772C14.5219 11.1116 14.4285 10.7515 14.2472 10.434L12.5281 7.42537C12.362 7.13546 12.1223 6.8945 11.8333 6.72679C11.5443 6.55908 11.2162 6.47055 10.882 6.47014C9.55927 6.47056 8.29054 6.99498 7.35353 7.92863C6.41652 8.86228 5.88754 10.1291 5.88237 11.4519C5.87999 13.1141 6.20534 14.7605 6.8398 16.2968C7.47426 17.8332 8.40538 19.2294 9.57991 20.4057C10.7544 21.5819 12.1493 22.515 13.6848 23.1516C15.2203 23.7883 16.8662 24.116 18.5284 24.116H18.5465C19.8692 24.1108 21.1361 23.5818 22.0697 22.6448C23.0034 21.7078 23.5278 20.4391 23.5282 19.1163C23.5278 18.7822 23.4393 18.4541 23.2716 18.1651C23.1039 17.8761 22.8629 17.6365 22.573 17.4704ZM18.544 22.3514H18.5286C17.0983 22.3514 15.682 22.0694 14.3608 21.5216C13.0396 20.9738 11.8393 20.1709 10.8287 19.1589C9.81804 18.1468 9.01683 16.9454 8.47087 15.6234C7.92492 14.3014 7.64494 12.8848 7.64696 11.4545C7.65077 10.5991 7.99331 9.78003 8.59962 9.17659C9.20593 8.57315 10.0266 8.23449 10.882 8.23473C10.9052 8.23475 10.9279 8.24088 10.9479 8.2525C10.9679 8.26412 10.9845 8.28082 10.996 8.3009L12.7151 11.3095C12.741 11.3549 12.7544 11.4063 12.7538 11.4585C12.7533 11.5107 12.7389 11.5618 12.712 11.6066L11.3313 13.9079C11.2581 14.0299 11.2155 14.1678 11.2072 14.3098C11.1988 14.4519 11.225 14.5938 11.2833 14.7235C12.0805 16.4978 13.5007 17.918 15.275 18.715C15.4047 18.7734 15.5467 18.7995 15.6887 18.7912C15.8307 18.7828 15.9686 18.7402 16.0906 18.667L18.3917 17.2865C18.4365 17.2597 18.4876 17.2452 18.5399 17.2447C18.5921 17.2441 18.6436 17.2573 18.689 17.2831L21.6976 19.0025C21.7176 19.014 21.7343 19.0306 21.7459 19.0506C21.7575 19.0706 21.7636 19.0932 21.7636 19.1163C21.7639 19.9717 21.4252 20.7924 20.8218 21.3987C20.2184 22.005 19.3994 22.3476 18.544 22.3514Z" fill="#25B49D"/>
</g>
<defs>
<clipPath id="clip0_101_198">
<rect width="30" height="30" fill="white"/>
</clipPath>
</defs>
</svg>
