<svg width="30" height="30" viewBox="0 0 30 30" fill="none" xmlns="http://www.w3.org/2000/svg">
<path d="M21.8793 0H8.12073C3.64288 0 0 3.64288 0 8.12073V21.8795C0 26.3571 3.64288 30 8.12073 30H21.8795C26.3571 30 30 26.3571 30 21.8795V8.12073C30 3.64288 26.3571 0 21.8793 0ZM28.2413 21.8795C28.2413 25.3873 25.3873 28.2413 21.8793 28.2413H8.12073C4.61266 28.2413 1.75873 25.3873 1.75873 21.8795V8.12073C1.75873 4.61266 4.61266 1.75873 8.12073 1.75873H21.8795C25.3873 1.75873 28.2413 4.61266 28.2413 8.12073V21.8795Z" fill="#25B49D"/>
<path d="M15 6.7971C10.4768 6.7971 6.7971 10.4768 6.7971 15C6.7971 19.5232 10.4768 23.2029 15 23.2029C19.5232 23.2029 23.2029 19.5232 23.2029 15C23.2029 10.4768 19.5232 6.7971 15 6.7971ZM15 21.4442C11.4468 21.4442 8.55583 18.5534 8.55583 15C8.55583 11.4468 11.4468 8.55583 15 8.55583C18.5534 8.55583 21.4442 11.4468 21.4442 15C21.4442 18.5534 18.5534 21.4442 15 21.4442Z" fill="#25B49D"/>
<path d="M23.399 3.8839C22.0624 3.8839 20.9752 4.97131 20.9752 6.30775C20.9752 7.64442 22.0624 8.73184 23.399 8.73184C24.7357 8.73184 25.8231 7.64442 25.8231 6.30775C25.8231 4.97108 24.7357 3.8839 23.399 3.8839ZM23.399 6.97289C23.0324 6.97289 22.7339 6.67442 22.7339 6.30775C22.7339 5.94086 23.0324 5.64262 23.399 5.64262C23.7659 5.64262 24.0644 5.94086 24.0644 6.30775C24.0644 6.67442 23.7659 6.97289 23.399 6.97289Z" fill="#25B49D"/>
</svg>
